<svg xmlns="http://www.w3.org/2000/svg" version="1.1" xmlns:xlink="http://www.w3.org/1999/xlink" width="512" height="512"><svg width="512" height="512" viewBox="0 0 512 512" fill="none" xmlns="http://www.w3.org/2000/svg">
<rect width="512" height="512" rx="120" fill="black"></rect>
<g clip-path="url(#clip0_41_282)">
<path d="M137.361 129.8C136.402 129.394 136.639 127.972 137.678 127.914C162.932 126.433 188.364 128.324 203.419 131.633C230.149 137.515 254.217 148.044 270.802 173.766C277.923 184.812 283.101 196.991 284.738 209.504C284.845 210.312 284.225 211.03 283.413 211.03H193.078C192.369 211.03 191.793 210.481 191.744 209.776C189.822 180.518 174.125 145.301 137.361 129.8Z" fill="white"></path>
<path d="M373.557 382.074C374.515 382.48 374.279 383.902 373.24 383.96C347.986 385.441 322.554 383.55 307.498 380.241C280.768 374.359 256.701 363.83 240.116 338.108C232.994 327.062 227.817 314.883 226.18 302.37C226.073 301.563 226.693 300.845 227.504 300.845H317.844C318.553 300.845 319.129 301.393 319.178 302.098C321.1 331.356 336.797 366.573 373.557 382.074Z" fill="white"></path>
<path d="M185.84 219.623C186.411 218.82 185.586 217.772 184.676 218.142C162.923 227.061 68.2307 272.365 87.5937 333.914C104.62 387.522 195.094 385.274 215.964 384.017C217.003 383.954 217.235 382.536 216.276 382.135C178.933 366.424 163.302 330.391 161.768 301.066C160.658 279.825 166.138 247.329 185.84 219.623V219.623Z" fill="white"></path>
<path d="M325.225 292.248C324.654 293.051 325.479 294.099 326.389 293.728C348.142 284.814 442.839 239.506 423.476 177.956C406.45 124.349 315.972 126.596 295.101 127.85C294.067 127.912 293.83 129.326 294.789 129.731C332.137 145.442 347.768 181.475 349.302 210.805C350.412 232.045 344.931 264.541 325.229 292.248H325.225Z" fill="white"></path>
</g>
<defs>
<clipPath id="SvgjsClipPath1001">
<rect width="341" height="341" fill="white" transform="translate(85 85)"></rect>
</clipPath>
</defs>
</svg><style>@media (prefers-color-scheme: light) { :root { filter: none; } }
@media (prefers-color-scheme: dark) { :root { filter: none; } }
</style></svg>